<svg id="e61e44c5-3bd3-46ec-9dc4-a0f527bd8085" data-name="Layer 1" xmlns="http://www.w3.org/2000/svg" viewBox="0 0 1920 1080"><title>Artboard 1</title><path d="M859,973.5A446.62,446.62,0,0,1,685.2,115.59a446.61,446.61,0,0,1,347.6,822.82A443.77,443.77,0,0,1,859,973.5Z" style="fill:#272b33"/><path d="M859,81a446.11,446.11,0,0,1,173.6,857,446.11,446.11,0,0,1-347.2-821.9A443.11,443.11,0,0,1,859,81m0-1C612.13,80,412,280.13,412,527S612.13,974,859,974s447-200.13,447-447S1105.87,80,859,80Z"/><text transform="translate(470.71 708.51) scale(1.15 1)" style="font-size:724.8687133789062px;fill:#f15a24;font-family:Aller-Italic, Aller;font-style:italic">L</text><text transform="translate(748.39 873.02) scale(1.02 1)" style="font-size:747.9265747070312px;fill:#f15a24;font-family:Aller-Italic, Aller;font-style:italic">T</text></svg>